{
    "asset" : {
        "generator" : "Khronos glTF Blender I/O v1.8.19",
        "version" : "2.0"
    },
    "scene" : 0,
    "scenes" : [
        {
            "name" : "Scene",
            "nodes" : [
                0
            ]
        }
    ],
    "nodes" : [
        {
            "mesh" : 0,
            "name" : "scene_1",
            "rotation" : [
                0,
                -0.7071068286895752,
                0,
                0.7071068286895752
            ],
            "scale" : [
                0.009999999776482582,
                0.009999999776482582,
                0.009999999776482582
            ],
            "translation" : [
                0,
                0,
                -0.15337041020393372
            ]
        }
    ],
    "materials" : [
        {
            "doubleSided" : true,
            "name" : "cafe_t",
            "pbrMetallicRoughness" : {
                "baseColorTexture" : {
                    "index" : 0
                },
                "metallicFactor" : 0,
                "roughnessFactor" : 0.5
            }
        },
        {
            "doubleSided" : true,
            "name" : "grey2",
            "pbrMetallicRoughness" : {
                "baseColorTexture" : {
                    "index" : 1
                },
                "metallicFactor" : 0,
                "roughnessFactor" : 0.5
            }
        },
        {
            "doubleSided" : true,
            "name" : "noise_darkest",
            "pbrMetallicRoughness" : {
                "baseColorTexture" : {
                    "index" : 2
                },
                "metallicFactor" : 0,
                "roughnessFactor" : 0.5
            }
        }
    ],
    "meshes" : [
        {
            "name" : "Plane.025",
            "primitives" : [
                {
                    "attributes" : {
                        "POSITION" : 0,
                        "NORMAL" : 1,
                        "TEXCOORD_0" : 2
                    },
                    "indices" : 3,
                    "material" : 0
                },
                {
                    "attributes" : {
                        "POSITION" : 4,
                        "NORMAL" : 5,
                        "TEXCOORD_0" : 6
                    },
                    "indices" : 7,
                    "material" : 1
                },
                {
                    "attributes" : {
                        "POSITION" : 8,
                        "NORMAL" : 9,
                        "TEXCOORD_0" : 10
                    },
                    "indices" : 11,
                    "material" : 2
                }
            ]
        }
    ],
    "textures" : [
        {
            "sampler" : 0,
            "source" : 0
        },
        {
            "sampler" : 0,
            "source" : 1
        },
        {
            "sampler" : 1,
            "source" : 2
        }
    ],
    "images" : [
        {
            "bufferView" : 4,
            "mimeType" : "image/png",
            "name" : "cafe_inside_textures"
        },
        {
            "bufferView" : 9,
            "mimeType" : "image/png",
            "name" : "t_dark_grey_128x128"
        },
        {
            "bufferView" : 14,
            "mimeType" : "image/png",
            "name" : "perlin_noise_02_darkest"
        }
    ],
    "accessors" : [
        {
            "bufferView" : 0,
            "componentType" : 5126,
            "count" : 710,
            "max" : [
                496.1951904296875,
                368.57763671875,
                358.78094482421875
            ],
            "min" : [
                -496.1951904296875,
                0,
                -160.98785400390625
            ],
            "type" : "VEC3"
        },
        {
            "bufferView" : 1,
            "componentType" : 5126,
            "count" : 710,
            "type" : "VEC3"
        },
        {
            "bufferView" : 2,
            "componentType" : 5126,
            "count" : 710,
            "type" : "VEC2"
        },
        {
            "bufferView" : 3,
            "componentType" : 5123,
            "count" : 1296,
            "type" : "SCALAR"
        },
        {
            "bufferView" : 5,
            "componentType" : 5126,
            "count" : 56,
            "max" : [
                1430.8602294921875,
                393.4176940917969,
                -160.98780822753906
            ],
            "min" : [
                -1250.1185302734375,
                -7.62939453125e-06,
                -1107.8828125
            ],
            "type" : "VEC3"
        },
        {
            "bufferView" : 6,
            "componentType" : 5126,
            "count" : 56,
            "type" : "VEC3"
        },
        {
            "bufferView" : 7,
            "componentType" : 5126,
            "count" : 56,
            "type" : "VEC2"
        },
        {
            "bufferView" : 8,
            "componentType" : 5123,
            "count" : 102,
            "type" : "SCALAR"
        },
        {
            "bufferView" : 10,
            "componentType" : 5126,
            "count" : 24,
            "max" : [
                1430.8602294921875,
                725.3075561523438,
                -1235.294921875
            ],
            "min" : [
                -1250.1185302734375,
                0,
                -1235.295166015625
            ],
            "type" : "VEC3"
        },
        {
            "bufferView" : 11,
            "componentType" : 5126,
            "count" : 24,
            "type" : "VEC3"
        },
        {
            "bufferView" : 12,
            "componentType" : 5126,
            "count" : 24,
            "type" : "VEC2"
        },
        {
            "bufferView" : 13,
            "componentType" : 5123,
            "count" : 36,
            "type" : "SCALAR"
        }
    ],
    "bufferViews" : [
        {
            "buffer" : 0,
            "byteLength" : 8520,
            "byteOffset" : 0
        },
        {
            "buffer" : 0,
            "byteLength" : 8520,
            "byteOffset" : 8520
        },
        {
            "buffer" : 0,
            "byteLength" : 5680,
            "byteOffset" : 17040
        },
        {
            "buffer" : 0,
            "byteLength" : 2592,
            "byteOffset" : 22720
        },
        {
            "buffer" : 0,
            "byteLength" : 36304,
            "byteOffset" : 25312
        },
        {
            "buffer" : 0,
            "byteLength" : 672,
            "byteOffset" : 61616
        },
        {
            "buffer" : 0,
            "byteLength" : 672,
            "byteOffset" : 62288
        },
        {
            "buffer" : 0,
            "byteLength" : 448,
            "byteOffset" : 62960
        },
        {
            "buffer" : 0,
            "byteLength" : 204,
            "byteOffset" : 63408
        },
        {
            "buffer" : 0,
            "byteLength" : 3119,
            "byteOffset" : 63612
        },
        {
            "buffer" : 0,
            "byteLength" : 288,
            "byteOffset" : 66732
        },
        {
            "buffer" : 0,
            "byteLength" : 288,
            "byteOffset" : 67020
        },
        {
            "buffer" : 0,
            "byteLength" : 192,
            "byteOffset" : 67308
        },
        {
            "buffer" : 0,
            "byteLength" : 72,
            "byteOffset" : 67500
        },
        {
            "buffer" : 0,
            "byteLength" : 8035,
            "byteOffset" : 67572
        }
    ],
    "samplers" : [
        {
            "magFilter" : 9729,
            "minFilter" : 9987
        },
        {
            "magFilter" : 9728,
            "minFilter" : 9984
        }
    ],
    "buffers" : [
        {
            "byteLength" : 75608,
            "uri" : "data:application/octet-stream;base64,"
        }
    ]
}
