{
    "asset" : {
        "generator" : "Khronos glTF Blender I/O v1.8.19",
        "version" : "2.0"
    },
    "scene" : 0,
    "scenes" : [
        {
            "name" : "Scene",
            "nodes" : [
                0
            ]
        }
    ],
    "nodes" : [
        {
            "mesh" : 0,
            "name" : "landscape_circle_01",
            "translation" : [
                0,
                -0.5,
                0
            ]
        }
    ],
    "animations" : [
        {
            "channels" : [
                {
                    "sampler" : 0,
                    "target" : {
                        "node" : 0,
                        "path" : "translation"
                    }
                },
                {
                    "sampler" : 1,
                    "target" : {
                        "node" : 0,
                        "path" : "rotation"
                    }
                },
                {
                    "sampler" : 2,
                    "target" : {
                        "node" : 0,
                        "path" : "scale"
                    }
                }
            ],
            "name" : "CircleAction",
            "samplers" : [
                {
                    "input" : 4,
                    "interpolation" : "STEP",
                    "output" : 5
                },
                {
                    "input" : 4,
                    "interpolation" : "STEP",
                    "output" : 6
                },
                {
                    "input" : 4,
                    "interpolation" : "STEP",
                    "output" : 7
                }
            ]
        }
    ],
    "materials" : [
        {
            "doubleSided" : true,
            "name" : "noise",
            "pbrMetallicRoughness" : {
                "baseColorTexture" : {
                    "index" : 0
                },
                "metallicFactor" : 0,
                "roughnessFactor" : 0.5
            }
        }
    ],
    "meshes" : [
        {
            "name" : "Circle",
            "primitives" : [
                {
                    "attributes" : {
                        "POSITION" : 0,
                        "NORMAL" : 1,
                        "TEXCOORD_0" : 2
                    },
                    "indices" : 3,
                    "material" : 0
                }
            ]
        }
    ],
    "textures" : [
        {
            "sampler" : 0,
            "source" : 0
        }
    ],
    "images" : [
        {
            "bufferView" : 4,
            "mimeType" : "image/png",
            "name" : "perlin_noise_01"
        }
    ],
    "accessors" : [
        {
            "bufferView" : 0,
            "componentType" : 5126,
            "count" : 123,
            "max" : [
                7.47902774810791,
                1.3139572143554688,
                7.41623067855835
            ],
            "min" : [
                -7.47902774810791,
                -0.5,
                -7.5
            ],
            "type" : "VEC3"
        },
        {
            "bufferView" : 1,
            "componentType" : 5126,
            "count" : 123,
            "type" : "VEC3"
        },
        {
            "bufferView" : 2,
            "componentType" : 5126,
            "count" : 123,
            "type" : "VEC2"
        },
        {
            "bufferView" : 3,
            "componentType" : 5123,
            "count" : 183,
            "type" : "SCALAR"
        },
        {
            "bufferView" : 5,
            "componentType" : 5126,
            "count" : 1,
            "max" : [
                0.375
            ],
            "min" : [
                0.375
            ],
            "type" : "SCALAR"
        },
        {
            "bufferView" : 6,
            "componentType" : 5126,
            "count" : 1,
            "type" : "VEC3"
        },
        {
            "bufferView" : 7,
            "componentType" : 5126,
            "count" : 1,
            "type" : "VEC4"
        },
        {
            "bufferView" : 8,
            "componentType" : 5126,
            "count" : 1,
            "type" : "VEC3"
        }
    ],
    "bufferViews" : [
        {
            "buffer" : 0,
            "byteLength" : 1476,
            "byteOffset" : 0
        },
        {
            "buffer" : 0,
            "byteLength" : 1476,
            "byteOffset" : 1476
        },
        {
            "buffer" : 0,
            "byteLength" : 984,
            "byteOffset" : 2952
        },
        {
            "buffer" : 0,
            "byteLength" : 366,
            "byteOffset" : 3936
        },
        {
            "buffer" : 0,
            "byteLength" : 6246,
            "byteOffset" : 4304
        },
        {
            "buffer" : 0,
            "byteLength" : 4,
            "byteOffset" : 10552
        },
        {
            "buffer" : 0,
            "byteLength" : 12,
            "byteOffset" : 10556
        },
        {
            "buffer" : 0,
            "byteLength" : 16,
            "byteOffset" : 10568
        },
        {
            "buffer" : 0,
            "byteLength" : 12,
            "byteOffset" : 10584
        }
    ],
    "samplers" : [
        {
            "magFilter" : 9728,
            "minFilter" : 9984
        }
    ],
    "buffers" : [
        {
            "byteLength" : 10596,
            "uri" : "data:application/octet-stream;base64,"
        }
    ]
}
