{
    "asset" : {
        "generator" : "Khronos glTF Blender I/O v1.8.19",
        "version" : "2.0"
    },
    "scene" : 0,
    "scenes" : [
        {
            "name" : "Scene",
            "nodes" : [
                0
            ]
        }
    ],
    "nodes" : [
        {
            "mesh" : 0,
            "name" : "train"
        }
    ],
    "materials" : [
        {
            "doubleSided" : true,
            "name" : "t_train",
            "pbrMetallicRoughness" : {
                "baseColorTexture" : {
                    "index" : 0
                },
                "metallicFactor" : 0,
                "roughnessFactor" : 0.5
            }
        }
    ],
    "meshes" : [
        {
            "name" : "train",
            "primitives" : [
                {
                    "attributes" : {
                        "POSITION" : 0,
                        "NORMAL" : 1,
                        "TEXCOORD_0" : 2
                    },
                    "indices" : 3,
                    "material" : 0
                }
            ]
        }
    ],
    "textures" : [
        {
            "sampler" : 0,
            "source" : 0
        }
    ],
    "images" : [
        {
            "bufferView" : 4,
            "mimeType" : "image/png",
            "name" : "train_texture"
        }
    ],
    "accessors" : [
        {
            "bufferView" : 0,
            "componentType" : 5126,
            "count" : 917,
            "max" : [
                2.8053441047668457,
                2.9738657474517822,
                4.892595291137695
            ],
            "min" : [
                -0.5972238779067993,
                -0.1584683060646057,
                -4.892595291137695
            ],
            "type" : "VEC3"
        },
        {
            "bufferView" : 1,
            "componentType" : 5126,
            "count" : 917,
            "type" : "VEC3"
        },
        {
            "bufferView" : 2,
            "componentType" : 5126,
            "count" : 917,
            "type" : "VEC2"
        },
        {
            "bufferView" : 3,
            "componentType" : 5123,
            "count" : 1332,
            "type" : "SCALAR"
        }
    ],
    "bufferViews" : [
        {
            "buffer" : 0,
            "byteLength" : 11004,
            "byteOffset" : 0
        },
        {
            "buffer" : 0,
            "byteLength" : 11004,
            "byteOffset" : 11004
        },
        {
            "buffer" : 0,
            "byteLength" : 7336,
            "byteOffset" : 22008
        },
        {
            "buffer" : 0,
            "byteLength" : 2664,
            "byteOffset" : 29344
        },
        {
            "buffer" : 0,
            "byteLength" : 47895,
            "byteOffset" : 32008
        }
    ],
    "samplers" : [
        {
            "magFilter" : 9728,
            "minFilter" : 9984
        }
    ],
    "buffers" : [
        {
            "byteLength" : 79904,
            "uri" : "data:application/octet-stream;base64,"
        }
    ]
}
