{
    "asset" : {
        "generator" : "Khronos glTF Blender I/O v1.8.19",
        "version" : "2.0"
    },
    "scene" : 0,
    "scenes" : [
        {
            "name" : "Scene",
            "nodes" : [
                0
            ]
        }
    ],
    "nodes" : [
        {
            "mesh" : 0,
            "name" : "SM_Nelya"
        }
    ],
    "materials" : [
        {
            "doubleSided" : true,
            "name" : "T_Nelya",
            "pbrMetallicRoughness" : {
                "baseColorTexture" : {
                    "index" : 0
                },
                "metallicFactor" : 0
            }
        },
        {
            "doubleSided" : true,
            "name" : "Nelya_face",
            "pbrMetallicRoughness" : {
                "baseColorTexture" : {
                    "index" : 1
                },
                "metallicFactor" : 0,
                "roughnessFactor" : 0.5
            }
        }
    ],
    "meshes" : [
        {
            "name" : "Plane.013",
            "primitives" : [
                {
                    "attributes" : {
                        "POSITION" : 0,
                        "NORMAL" : 1,
                        "TEXCOORD_0" : 2
                    },
                    "indices" : 3,
                    "material" : 0
                },
                {
                    "attributes" : {
                        "POSITION" : 4,
                        "NORMAL" : 5,
                        "TEXCOORD_0" : 6
                    },
                    "indices" : 7,
                    "material" : 1
                }
            ]
        }
    ],
    "textures" : [
        {
            "sampler" : 0,
            "source" : 0
        },
        {
            "sampler" : 0,
            "source" : 1
        }
    ],
    "images" : [
        {
            "bufferView" : 4,
            "mimeType" : "image/png",
            "name" : "T_Nelya_body"
        },
        {
            "bufferView" : 9,
            "mimeType" : "image/png",
            "name" : "T_Nelya_face_neutral"
        }
    ],
    "accessors" : [
        {
            "bufferView" : 0,
            "componentType" : 5126,
            "count" : 2257,
            "max" : [
                0.49721959233283997,
                1.7744184732437134,
                0.2044011652469635
            ],
            "min" : [
                -0.49721959233283997,
                0,
                -0.22855086624622345
            ],
            "type" : "VEC3"
        },
        {
            "bufferView" : 1,
            "componentType" : 5126,
            "count" : 2257,
            "type" : "VEC3"
        },
        {
            "bufferView" : 2,
            "componentType" : 5126,
            "count" : 2257,
            "type" : "VEC2"
        },
        {
            "bufferView" : 3,
            "componentType" : 5123,
            "count" : 3087,
            "type" : "SCALAR"
        },
        {
            "bufferView" : 5,
            "componentType" : 5126,
            "count" : 48,
            "max" : [
                0.0988432988524437,
                1.6992191076278687,
                0.10842950642108917
            ],
            "min" : [
                -0.0988432988524437,
                1.4539947509765625,
                0.01584961637854576
            ],
            "type" : "VEC3"
        },
        {
            "bufferView" : 6,
            "componentType" : 5126,
            "count" : 48,
            "type" : "VEC3"
        },
        {
            "bufferView" : 7,
            "componentType" : 5126,
            "count" : 48,
            "type" : "VEC2"
        },
        {
            "bufferView" : 8,
            "componentType" : 5123,
            "count" : 60,
            "type" : "SCALAR"
        }
    ],
    "bufferViews" : [
        {
            "buffer" : 0,
            "byteLength" : 27084,
            "byteOffset" : 0
        },
        {
            "buffer" : 0,
            "byteLength" : 27084,
            "byteOffset" : 27084
        },
        {
            "buffer" : 0,
            "byteLength" : 18056,
            "byteOffset" : 54168
        },
        {
            "buffer" : 0,
            "byteLength" : 6174,
            "byteOffset" : 72224
        },
        {
            "buffer" : 0,
            "byteLength" : 59570,
            "byteOffset" : 78400
        },
        {
            "buffer" : 0,
            "byteLength" : 576,
            "byteOffset" : 137972
        },
        {
            "buffer" : 0,
            "byteLength" : 576,
            "byteOffset" : 138548
        },
        {
            "buffer" : 0,
            "byteLength" : 384,
            "byteOffset" : 139124
        },
        {
            "buffer" : 0,
            "byteLength" : 120,
            "byteOffset" : 139508
        },
        {
            "buffer" : 0,
            "byteLength" : 5793,
            "byteOffset" : 139628
        }
    ],
    "samplers" : [
        {
            "magFilter" : 9728,
            "minFilter" : 9984
        }
    ],
    "buffers" : [
        {
            "byteLength" : 145424,
            "uri" : "data:application/octet-stream;base64,"
        }
    ]
}
