{
    "asset" : {
        "generator" : "Khronos glTF Blender I/O v1.8.19",
        "version" : "2.0"
    },
    "scene" : 0,
    "scenes" : [
        {
            "name" : "Scene",
            "nodes" : [
                0,
                1,
                2
            ]
        }
    ],
    "nodes" : [
        {
            "mesh" : 0,
            "name" : "Plane"
        },
        {
            "mesh" : 1,
            "name" : "SM_Nelya.001",
            "rotation" : [
                0,
                0.6917837858200073,
                0,
                0.7221047282218933
            ],
            "scale" : [
                0.009999999776482582,
                0.009999999776482582,
                0.009999999776482582
            ],
            "translation" : [
                -1.0300239324569702,
                0,
                -0.18686272203922272
            ]
        },
        {
            "mesh" : 2,
            "name" : "SM_MC",
            "rotation" : [
                0,
                -0.688290536403656,
                0,
                0.725435197353363
            ],
            "scale" : [
                0.009999999776482582,
                0.009999999776482582,
                0.009999999776482582
            ],
            "translation" : [
                1.0254663228988647,
                0,
                0.5378000140190125
            ]
        }
    ],
    "materials" : [
        {
            "doubleSided" : true,
            "name" : "grey1",
            "pbrMetallicRoughness" : {
                "baseColorTexture" : {
                    "index" : 0
                },
                "metallicFactor" : 0,
                "roughnessFactor" : 0.4000000059604645
            }
        },
        {
            "doubleSided" : true,
            "name" : "grey2",
            "pbrMetallicRoughness" : {
                "baseColorTexture" : {
                    "index" : 1
                },
                "metallicFactor" : 0,
                "roughnessFactor" : 0.5
            }
        },
        {
            "doubleSided" : true,
            "name" : "T_Nelya",
            "pbrMetallicRoughness" : {
                "baseColorTexture" : {
                    "index" : 2
                },
                "metallicFactor" : 0
            }
        },
        {
            "doubleSided" : true,
            "name" : "Nelya_face",
            "pbrMetallicRoughness" : {
                "baseColorTexture" : {
                    "index" : 3
                },
                "metallicFactor" : 0,
                "roughnessFactor" : 0.5
            }
        },
        {
            "doubleSided" : true,
            "name" : "body",
            "pbrMetallicRoughness" : {
                "baseColorTexture" : {
                    "index" : 4
                },
                "metallicFactor" : 0
            }
        },
        {
            "doubleSided" : true,
            "name" : "face_v2",
            "pbrMetallicRoughness" : {
                "baseColorTexture" : {
                    "index" : 5
                },
                "metallicFactor" : 0,
                "roughnessFactor" : 0.5
            }
        }
    ],
    "meshes" : [
        {
            "name" : "Plane",
            "primitives" : [
                {
                    "attributes" : {
                        "POSITION" : 0,
                        "NORMAL" : 1,
                        "TEXCOORD_0" : 2
                    },
                    "indices" : 3,
                    "material" : 0
                },
                {
                    "attributes" : {
                        "POSITION" : 4,
                        "NORMAL" : 5,
                        "TEXCOORD_0" : 6
                    },
                    "indices" : 7,
                    "material" : 1
                }
            ]
        },
        {
            "name" : "Plane.002",
            "primitives" : [
                {
                    "attributes" : {
                        "POSITION" : 8,
                        "NORMAL" : 9,
                        "TEXCOORD_0" : 10
                    },
                    "indices" : 11,
                    "material" : 2
                },
                {
                    "attributes" : {
                        "POSITION" : 12,
                        "NORMAL" : 13,
                        "TEXCOORD_0" : 14
                    },
                    "indices" : 15,
                    "material" : 3
                }
            ]
        },
        {
            "name" : "Plane.004",
            "primitives" : [
                {
                    "attributes" : {
                        "POSITION" : 16,
                        "NORMAL" : 17,
                        "TEXCOORD_0" : 18,
                        "COLOR_0" : 19
                    },
                    "indices" : 20,
                    "material" : 4
                },
                {
                    "attributes" : {
                        "POSITION" : 21,
                        "NORMAL" : 22,
                        "TEXCOORD_0" : 23,
                        "COLOR_0" : 24
                    },
                    "indices" : 25,
                    "material" : 5
                }
            ]
        }
    ],
    "textures" : [
        {
            "sampler" : 0,
            "source" : 0
        },
        {
            "sampler" : 0,
            "source" : 1
        },
        {
            "sampler" : 0,
            "source" : 2
        },
        {
            "sampler" : 0,
            "source" : 3
        },
        {
            "sampler" : 0,
            "source" : 4
        },
        {
            "sampler" : 0,
            "source" : 5
        }
    ],
    "images" : [
        {
            "mimeType" : "image/png",
            "name" : "t_grey_128x128",
            "uri" : "t_grey_128x128.png"
        },
        {
            "mimeType" : "image/png",
            "name" : "t_dark_grey_128x128",
            "uri" : "t_dark_grey_128x128.png"
        },
        {
            "mimeType" : "image/png",
            "name" : "T_Nelya_body",
            "uri" : "T_Nelya_body.png"
        },
        {
            "mimeType" : "image/png",
            "name" : "T_Nelya_face_neutral",
            "uri" : "T_Nelya_face_neutral.png"
        },
        {
            "mimeType" : "image/png",
            "name" : "T_MC_body",
            "uri" : "T_MC_body.png"
        },
        {
            "mimeType" : "image/png",
            "name" : "T_MC_face_neutral",
            "uri" : "T_MC_face_neutral.png"
        }
    ],
    "accessors" : [
        {
            "bufferView" : 0,
            "componentType" : 5126,
            "count" : 136,
            "max" : [
                0,
                3.6857762336730957,
                3.5878095626831055
            ],
            "min" : [
                -9.183431625366211,
                0,
                -1.609878420829773
            ],
            "type" : "VEC3"
        },
        {
            "bufferView" : 1,
            "componentType" : 5126,
            "count" : 136,
            "type" : "VEC3"
        },
        {
            "bufferView" : 2,
            "componentType" : 5126,
            "count" : 136,
            "type" : "VEC2"
        },
        {
            "bufferView" : 3,
            "componentType" : 5123,
            "count" : 216,
            "type" : "SCALAR"
        },
        {
            "bufferView" : 4,
            "componentType" : 5126,
            "count" : 336,
            "max" : [
                0,
                1.2666383981704712,
                1.0628015995025635
            ],
            "min" : [
                -6.1558709144592285,
                0,
                -1.0628015995025635
            ],
            "type" : "VEC3"
        },
        {
            "bufferView" : 5,
            "componentType" : 5126,
            "count" : 336,
            "type" : "VEC3"
        },
        {
            "bufferView" : 6,
            "componentType" : 5126,
            "count" : 336,
            "type" : "VEC2"
        },
        {
            "bufferView" : 7,
            "componentType" : 5123,
            "count" : 534,
            "type" : "SCALAR"
        },
        {
            "bufferView" : 8,
            "componentType" : 5126,
            "count" : 2215,
            "max" : [
                49.235984802246094,
                149.9547119140625,
                75.68785858154297
            ],
            "min" : [
                -50.202613830566406,
                2.7428741455078125,
                -30.090105056762695
            ],
            "type" : "VEC3"
        },
        {
            "bufferView" : 9,
            "componentType" : 5126,
            "count" : 2215,
            "type" : "VEC3"
        },
        {
            "bufferView" : 10,
            "componentType" : 5126,
            "count" : 2215,
            "type" : "VEC2"
        },
        {
            "bufferView" : 11,
            "componentType" : 5123,
            "count" : 3087,
            "type" : "SCALAR"
        },
        {
            "bufferView" : 12,
            "componentType" : 5126,
            "count" : 48,
            "max" : [
                6.112344741821289,
                141.9842529296875,
                1.8741779327392578
            ],
            "min" : [
                -12.813106536865234,
                117.3941421508789,
                -8.404853820800781
            ],
            "type" : "VEC3"
        },
        {
            "bufferView" : 13,
            "componentType" : 5126,
            "count" : 48,
            "type" : "VEC3"
        },
        {
            "bufferView" : 14,
            "componentType" : 5126,
            "count" : 48,
            "type" : "VEC2"
        },
        {
            "bufferView" : 15,
            "componentType" : 5123,
            "count" : 60,
            "type" : "SCALAR"
        },
        {
            "bufferView" : 16,
            "componentType" : 5126,
            "count" : 2004,
            "max" : [
                48.75809097290039,
                154.51318359375,
                73.67546844482422
            ],
            "min" : [
                -49.02950668334961,
                0.8801040649414062,
                -35.51999282836914
            ],
            "type" : "VEC3"
        },
        {
            "bufferView" : 17,
            "componentType" : 5126,
            "count" : 2004,
            "type" : "VEC3"
        },
        {
            "bufferView" : 18,
            "componentType" : 5126,
            "count" : 2004,
            "type" : "VEC2"
        },
        {
            "bufferView" : 19,
            "componentType" : 5123,
            "count" : 2004,
            "normalized" : true,
            "type" : "VEC4"
        },
        {
            "bufferView" : 20,
            "componentType" : 5123,
            "count" : 2856,
            "type" : "SCALAR"
        },
        {
            "bufferView" : 21,
            "componentType" : 5126,
            "count" : 48,
            "max" : [
                7.282400608062744,
                134.8494415283203,
                4.729478359222412
            ],
            "min" : [
                -10.317814826965332,
                108.67278289794922,
                -4.861827373504639
            ],
            "type" : "VEC3"
        },
        {
            "bufferView" : 22,
            "componentType" : 5126,
            "count" : 48,
            "type" : "VEC3"
        },
        {
            "bufferView" : 23,
            "componentType" : 5126,
            "count" : 48,
            "type" : "VEC2"
        },
        {
            "bufferView" : 24,
            "componentType" : 5123,
            "count" : 48,
            "normalized" : true,
            "type" : "VEC4"
        },
        {
            "bufferView" : 25,
            "componentType" : 5123,
            "count" : 60,
            "type" : "SCALAR"
        }
    ],
    "bufferViews" : [
        {
            "buffer" : 0,
            "byteLength" : 1632,
            "byteOffset" : 0
        },
        {
            "buffer" : 0,
            "byteLength" : 1632,
            "byteOffset" : 1632
        },
        {
            "buffer" : 0,
            "byteLength" : 1088,
            "byteOffset" : 3264
        },
        {
            "buffer" : 0,
            "byteLength" : 432,
            "byteOffset" : 4352
        },
        {
            "buffer" : 0,
            "byteLength" : 4032,
            "byteOffset" : 4784
        },
        {
            "buffer" : 0,
            "byteLength" : 4032,
            "byteOffset" : 8816
        },
        {
            "buffer" : 0,
            "byteLength" : 2688,
            "byteOffset" : 12848
        },
        {
            "buffer" : 0,
            "byteLength" : 1068,
            "byteOffset" : 15536
        },
        {
            "buffer" : 0,
            "byteLength" : 26580,
            "byteOffset" : 16604
        },
        {
            "buffer" : 0,
            "byteLength" : 26580,
            "byteOffset" : 43184
        },
        {
            "buffer" : 0,
            "byteLength" : 17720,
            "byteOffset" : 69764
        },
        {
            "buffer" : 0,
            "byteLength" : 6174,
            "byteOffset" : 87484
        },
        {
            "buffer" : 0,
            "byteLength" : 576,
            "byteOffset" : 93660
        },
        {
            "buffer" : 0,
            "byteLength" : 576,
            "byteOffset" : 94236
        },
        {
            "buffer" : 0,
            "byteLength" : 384,
            "byteOffset" : 94812
        },
        {
            "buffer" : 0,
            "byteLength" : 120,
            "byteOffset" : 95196
        },
        {
            "buffer" : 0,
            "byteLength" : 24048,
            "byteOffset" : 95316
        },
        {
            "buffer" : 0,
            "byteLength" : 24048,
            "byteOffset" : 119364
        },
        {
            "buffer" : 0,
            "byteLength" : 16032,
            "byteOffset" : 143412
        },
        {
            "buffer" : 0,
            "byteLength" : 16032,
            "byteOffset" : 159444
        },
        {
            "buffer" : 0,
            "byteLength" : 5712,
            "byteOffset" : 175476
        },
        {
            "buffer" : 0,
            "byteLength" : 576,
            "byteOffset" : 181188
        },
        {
            "buffer" : 0,
            "byteLength" : 576,
            "byteOffset" : 181764
        },
        {
            "buffer" : 0,
            "byteLength" : 384,
            "byteOffset" : 182340
        },
        {
            "buffer" : 0,
            "byteLength" : 384,
            "byteOffset" : 182724
        },
        {
            "buffer" : 0,
            "byteLength" : 120,
            "byteOffset" : 183108
        }
    ],
    "samplers" : [
        {
            "magFilter" : 9729,
            "minFilter" : 9987
        }
    ],
    "buffers" : [
        {
            "byteLength" : 183228,
            "uri" : "Scene_cafe_placeholder.bin"
        }
    ]
}
