{
    "asset" : {
        "generator" : "Khronos glTF Blender I/O v1.8.19",
        "version" : "2.0"
    },
    "scene" : 0,
    "scenes" : [
        {
            "name" : "Scene",
            "nodes" : [
                0,
                1
            ]
        }
    ],
    "nodes" : [
        {
            "mesh" : 0,
            "name" : "train",
            "scale" : [
                3.057964563369751,
                3.057964563369751,
                3.057964563369751
            ]
        },
        {
            "mesh" : 1,
            "name" : "Shum_MC_model.002",
            "rotation" : [
                0,
                0.7071068286895752,
                0,
                0.7071068286895752
            ]
        }
    ],
    "materials" : [
        {
            "doubleSided" : true,
            "name" : "Material.001",
            "pbrMetallicRoughness" : {
                "baseColorTexture" : {
                    "index" : 0
                },
                "metallicFactor" : 0
            }
        },
        {
            "doubleSided" : true,
            "name" : "Material.002",
            "pbrMetallicRoughness" : {
                "baseColorTexture" : {
                    "index" : 1
                },
                "metallicFactor" : 0,
                "roughnessFactor" : 0.5
            }
        },
        {
            "doubleSided" : true,
            "name" : "body",
            "pbrMetallicRoughness" : {
                "baseColorTexture" : {
                    "index" : 2
                },
                "metallicFactor" : 0
            }
        },
        {
            "doubleSided" : true,
            "name" : "face_v2",
            "pbrMetallicRoughness" : {
                "baseColorTexture" : {
                    "index" : 3
                },
                "metallicFactor" : 0,
                "roughnessFactor" : 0.5
            }
        }
    ],
    "meshes" : [
        {
            "name" : "Plane",
            "primitives" : [
                {
                    "attributes" : {
                        "POSITION" : 0,
                        "NORMAL" : 1,
                        "TEXCOORD_0" : 2
                    },
                    "indices" : 3,
                    "material" : 0
                },
                {
                    "attributes" : {
                        "POSITION" : 4,
                        "NORMAL" : 5,
                        "TEXCOORD_0" : 6
                    },
                    "indices" : 7,
                    "material" : 1
                }
            ]
        },
        {
            "name" : "Plane.002",
            "primitives" : [
                {
                    "attributes" : {
                        "POSITION" : 8,
                        "NORMAL" : 9,
                        "TEXCOORD_0" : 10
                    },
                    "indices" : 11,
                    "material" : 2
                },
                {
                    "attributes" : {
                        "POSITION" : 12,
                        "NORMAL" : 13,
                        "TEXCOORD_0" : 14
                    },
                    "indices" : 15,
                    "material" : 3
                }
            ]
        }
    ],
    "textures" : [
        {
            "sampler" : 0,
            "source" : 0
        },
        {
            "sampler" : 0,
            "source" : 1
        },
        {
            "sampler" : 1,
            "source" : 2
        },
        {
            "sampler" : 1,
            "source" : 3
        }
    ],
    "images" : [
        {
            "bufferView" : 4,
            "mimeType" : "image/png",
            "name" : "t_dark_grey_128x128"
        },
        {
            "bufferView" : 9,
            "mimeType" : "image/png",
            "name" : "t_grey_128x128"
        },
        {
            "bufferView" : 14,
            "mimeType" : "image/png",
            "name" : "Image_0"
        },
        {
            "bufferView" : 19,
            "mimeType" : "image/png",
            "name" : "Image_1"
        }
    ],
    "accessors" : [
        {
            "bufferView" : 0,
            "componentType" : 5126,
            "count" : 40,
            "max" : [
                1,
                1.060071587562561,
                1
            ],
            "min" : [
                -0.2128879278898239,
                0,
                0
            ],
            "type" : "VEC3"
        },
        {
            "bufferView" : 1,
            "componentType" : 5126,
            "count" : 40,
            "type" : "VEC3"
        },
        {
            "bufferView" : 2,
            "componentType" : 5126,
            "count" : 40,
            "type" : "VEC2"
        },
        {
            "bufferView" : 3,
            "componentType" : 5123,
            "count" : 72,
            "type" : "SCALAR"
        },
        {
            "bufferView" : 5,
            "componentType" : 5126,
            "count" : 220,
            "max" : [
                0.2246716171503067,
                0.7135319113731384,
                0.6741310358047485
            ],
            "min" : [
                -0.21288791298866272,
                -0.006210044026374817,
                0
            ],
            "type" : "VEC3"
        },
        {
            "bufferView" : 6,
            "componentType" : 5126,
            "count" : 220,
            "type" : "VEC3"
        },
        {
            "bufferView" : 7,
            "componentType" : 5126,
            "count" : 220,
            "type" : "VEC2"
        },
        {
            "bufferView" : 8,
            "componentType" : 5123,
            "count" : 330,
            "type" : "SCALAR"
        },
        {
            "bufferView" : 10,
            "componentType" : 5126,
            "count" : 1980,
            "max" : [
                -0.34506118297576904,
                1.6236354112625122,
                0.3579072952270508
            ],
            "min" : [
                -1.4389019012451172,
                0.001544356346130371,
                -0.6301678419113159
            ],
            "type" : "VEC3"
        },
        {
            "bufferView" : 11,
            "componentType" : 5126,
            "count" : 1980,
            "type" : "VEC3"
        },
        {
            "bufferView" : 12,
            "componentType" : 5126,
            "count" : 1980,
            "type" : "VEC2"
        },
        {
            "bufferView" : 13,
            "componentType" : 5123,
            "count" : 2748,
            "type" : "SCALAR"
        },
        {
            "bufferView" : 15,
            "componentType" : 5126,
            "count" : 48,
            "max" : [
                -1.0465507507324219,
                1.4077588319778442,
                -0.09264037013053894
            ],
            "min" : [
                -1.1387665271759033,
                1.1480517387390137,
                -0.26752156019210815
            ],
            "type" : "VEC3"
        },
        {
            "bufferView" : 16,
            "componentType" : 5126,
            "count" : 48,
            "type" : "VEC3"
        },
        {
            "bufferView" : 17,
            "componentType" : 5126,
            "count" : 48,
            "type" : "VEC2"
        },
        {
            "bufferView" : 18,
            "componentType" : 5123,
            "count" : 60,
            "type" : "SCALAR"
        }
    ],
    "bufferViews" : [
        {
            "buffer" : 0,
            "byteLength" : 480,
            "byteOffset" : 0
        },
        {
            "buffer" : 0,
            "byteLength" : 480,
            "byteOffset" : 480
        },
        {
            "buffer" : 0,
            "byteLength" : 320,
            "byteOffset" : 960
        },
        {
            "buffer" : 0,
            "byteLength" : 144,
            "byteOffset" : 1280
        },
        {
            "buffer" : 0,
            "byteLength" : 3119,
            "byteOffset" : 1424
        },
        {
            "buffer" : 0,
            "byteLength" : 2640,
            "byteOffset" : 4544
        },
        {
            "buffer" : 0,
            "byteLength" : 2640,
            "byteOffset" : 7184
        },
        {
            "buffer" : 0,
            "byteLength" : 1760,
            "byteOffset" : 9824
        },
        {
            "buffer" : 0,
            "byteLength" : 660,
            "byteOffset" : 11584
        },
        {
            "buffer" : 0,
            "byteLength" : 3118,
            "byteOffset" : 12244
        },
        {
            "buffer" : 0,
            "byteLength" : 23760,
            "byteOffset" : 15364
        },
        {
            "buffer" : 0,
            "byteLength" : 23760,
            "byteOffset" : 39124
        },
        {
            "buffer" : 0,
            "byteLength" : 15840,
            "byteOffset" : 62884
        },
        {
            "buffer" : 0,
            "byteLength" : 5496,
            "byteOffset" : 78724
        },
        {
            "buffer" : 0,
            "byteLength" : 63547,
            "byteOffset" : 84220
        },
        {
            "buffer" : 0,
            "byteLength" : 576,
            "byteOffset" : 147768
        },
        {
            "buffer" : 0,
            "byteLength" : 576,
            "byteOffset" : 148344
        },
        {
            "buffer" : 0,
            "byteLength" : 384,
            "byteOffset" : 148920
        },
        {
            "buffer" : 0,
            "byteLength" : 120,
            "byteOffset" : 149304
        },
        {
            "buffer" : 0,
            "byteLength" : 4952,
            "byteOffset" : 149424
        }
    ],
    "samplers" : [
        {
            "magFilter" : 9729,
            "minFilter" : 9987
        },
        {
            "magFilter" : 9728,
            "minFilter" : 9984
        }
    ],
    "buffers" : [
        {
            "byteLength" : 154376,
            "uri" : "data:application/octet-stream;base64,"
        }
    ]
}
